<?xml version="1.0" standalone="no"?>
<!DOCTYPE svg PUBLIC "-//W3C//DTD SVG 20010904//EN"
 "http://www.w3.org/TR/2001/REC-SVG-20010904/DTD/svg10.dtd">
<svg version="1.0" xmlns="http://www.w3.org/2000/svg"
 width="300.000000pt" height="343.000000pt" viewBox="0 0 300.000000 343.000000"
 preserveAspectRatio="xMidYMid meet">
<metadata>
Created by potrace 1.10, written by Peter Selinger 2001-2011
</metadata>
<g transform="translate(0.000000,343.000000) scale(0.050000,-0.050000)"
fill="#000000" stroke="none">
<path d="M3597 6548 c-65 -147 -46 -430 42 -613 73 -153 71 -198 -16 -325 -81
-118 -125 -108 -169 40 -96 321 -233 441 -234 204 0 -92 40 -191 98 -243 131
-117 118 -498 -19 -541 -69 -22 -140 128 -169 360 -22 177 -32 210 -83 270
-141 167 -139 -19 4 -365 121 -296 133 -407 59 -571 -108 -241 -181 -243 -160
-3 33 376 -174 623 -251 299 -26 -108 13 -234 125 -406 128 -195 125 -210
-119 -544 -249 -340 -275 -323 -214 146 50 391 17 553 -100 477 -101 -67 -107
-144 -61 -763 l30 -399 -315 -316 c-340 -341 -445 -427 -497 -407 -92 35 159
488 436 786 130 140 176 233 176 356 0 219 -216 31 -320 -278 -52 -156 -108
-232 -143 -197 -35 34 0 232 73 414 117 291 62 533 -78 344 -37 -50 -42 -83
-42 -300 0 -322 -43 -380 -118 -158 -39 114 -84 165 -145 165 -92 0 -58 -145
65 -280 174 -190 32 -664 -360 -1195 -106 -144 -142 -154 -185 -50 -59 141 21
419 169 588 140 159 148 434 11 357 -76 -43 -124 -149 -147 -327 -33 -260
-120 -330 -140 -113 -13 133 -28 160 -91 160 -65 0 -64 -7 31 -400 121 -500
113 -602 -65 -835 -84 -110 -113 -117 -118 -29 -2 52 -3 52 -12 5 -12 -65 -46
-115 -252 -371 -98 -121 -200 -267 -229 -324 l-51 -104 44 -226 c48 -246 56
-435 21 -500 -25 -46 19 -101 134 -169 34 -21 101 -64 150 -96 147 -99 339
-42 446 132 38 62 42 95 8 61 -97 -97 -126 1 -97 325 82 908 421 1270 1187
1271 245 1 335 20 274 59 -29 19 -78 28 -273 52 -243 29 -210 95 90 178 357
100 547 254 404 330 -91 49 -202 13 -361 -117 -304 -251 -940 -547 -940 -438
0 121 446 579 666 683 444 211 1688 495 2304 526 221 12 273 7 650 -62 433
-80 576 -84 672 -22 160 105 -47 197 -314 140 -297 -63 -783 26 -692 127 87
96 43 101 -156 16 -235 -100 -381 -57 -201 59 279 178 287 180 783 174 497 -6
544 5 439 103 -89 82 -278 89 -479 19 -94 -33 -92 -33 -92 0 0 84 211 186 444
214 443 53 636 136 636 272 0 204 -618 91 -702 -128 -18 -47 -66 -60 -89 -24
-15 25 57 122 237 317 163 176 213 265 175 311 -57 69 -175 -14 -231 -163 -96
-254 -580 -714 -921 -876 -248 -117 -210 51 63 282 298 253 371 354 302 422
-63 63 -354 -138 -354 -245 0 -122 -437 -666 -603 -750 -182 -93 -173 -35 37
268 153 219 217 419 148 462 -52 32 -222 -233 -222 -345 0 -242 -297 -520
-666 -623 -215 -60 -246 -49 -141 50 215 206 280 329 172 329 -93 0 -175 -69
-268 -223 -103 -171 -174 -217 -422 -271 -233 -50 -231 -23 21 277 339 403
425 449 831 442 312 -5 350 0 312 47 -18 20 -74 28 -211 28 -266 0 -255 11
279 288 141 73 339 184 440 246 374 231 386 235 614 214 219 -20 239 -18 239
24 0 42 -88 69 -185 56 -242 -32 -146 115 138 210 295 98 567 412 487 562 -69
129 -499 -102 -615 -330 -103 -204 -265 -378 -311 -332 -30 30 32 305 110 487
72 170 86 334 33 387 -77 76 -152 -88 -177 -387 -34 -404 -139 -634 -356 -778
-127 -84 -125 -85 -98 47 37 178 -27 161 -126 -33 -94 -184 -385 -424 -443
-366 -58 58 350 606 510 683 131 64 316 256 309 321 -18 153 -320 12 -426
-198 -20 -38 -105 -142 -189 -230 -89 -94 -207 -249 -282 -371 -142 -232 -368
-480 -436 -480 -66 0 -88 -46 221 460 104 171 234 391 288 489 133 243 265
370 548 530 333 188 448 303 332 332 -67 17 -119 -15 -292 -179 -291 -275
-318 -260 -164 90 230 520 266 841 118 1060 -73 109 -144 105 -197 -14z"/>
<path d="M4152 6175 c-52 -46 -192 -267 -192 -302 0 -54 571 51 639 118 43 42
-23 38 -289 -19 -121 -26 -222 -46 -224 -44 -2 2 41 55 95 119 134 157 111
253 -29 128z"/>
<path d="M5531 3429 c-41 -42 -39 -75 7 -118 58 -52 131 -34 138 35 12 101
-76 151 -145 83z"/>
</g>
</svg>
